<?xml version="1.0" encoding="utf-8"?>
<!-- Generator: Adobe Illustrator 19.2.1, SVG Export Plug-In . SVG Version: 6.00 Build 0)  -->
<svg version="1.1" id="Layer_1" xmlns="http://www.w3.org/2000/svg" xmlns:xlink="http://www.w3.org/1999/xlink" x="0px" y="0px"
	 viewBox="0 0 502 502" style="enable-background:new 0 0 502 502;" xml:space="preserve">
<style type="text/css">
	.st0{fill:url(#SVGID_1_);}
	.st1{fill:#FFFFFF;}
</style>
<linearGradient id="SVGID_1_" gradientUnits="userSpaceOnUse" x1="249.2202" y1="500.1768" x2="252.7698" y2="-1.7754">
	<stop  offset="4.939578e-02" style="stop-color:#5AFF15"/>
	<stop  offset="0.1899" style="stop-color:#81FB24"/>
	<stop  offset="0.3767" style="stop-color:#AEF535"/>
	<stop  offset="0.5565" style="stop-color:#D1F143"/>
	<stop  offset="0.7249" style="stop-color:#EAEE4D"/>
	<stop  offset="0.8774" style="stop-color:#FAED53"/>
	<stop  offset="1" style="stop-color:#FFEC55"/>
</linearGradient>
<path class="st0" d="M394,502H108C48.6,502,0,453.4,0,394V108C0,48.6,48.6,0,108,0h286c59.4,0,108,48.6,108,108v286
	C502,453.4,453.4,502,394,502z"/>
<path class="st1" d="M418.1,353.3c-6.5,15-14.2,28.8-23.1,41.5c-12.1,17.3-22.1,29.3-29.7,35.9c-11.9,10.9-24.6,16.5-38.2,16.8
	c-9.8,0-21.6-2.8-35.3-8.4c-13.8-5.6-26.4-8.4-38-8.4c-12.1,0-25.1,2.8-39,8.4c-13.9,5.6-25.2,8.6-33.7,8.9
	c-13.1,0.6-26.1-5.2-39-17.3c-8.3-7.2-18.7-19.6-31.1-37.2c-13.3-18.7-24.3-40.5-32.9-65.3c-9.2-26.8-13.8-52.7-13.8-77.8
	c0-28.8,6.2-53.5,18.7-74.3c9.8-16.7,22.8-29.9,39.1-39.5s33.9-14.6,52.8-14.9c10.4,0,24,3.2,40.9,9.5c16.8,6.3,27.7,9.5,32.4,9.5
	c3.5,0,15.6-3.7,35.9-11.2c19.3-6.9,35.5-9.8,48.8-8.7c36.1,2.9,63.2,17.1,81.2,42.8c-32.3,19.6-48.2,47-47.9,82.1
	c0.3,27.4,10.2,50.2,29.7,68.2c8.8,8.4,18.7,14.9,29.7,19.5C423.3,340.3,420.7,346.9,418.1,353.3L418.1,353.3z M335.3,27.6
	c0,21.5-7.8,41.5-23.5,60c-18.9,22-41.7,34.8-66.4,32.8c-0.3-2.6-0.5-5.3-0.5-8.1c0-20.6,9-42.6,24.9-60.7
	c7.9-9.1,18.1-16.7,30.3-22.8c12.2-6,23.8-9.3,34.7-9.8C335.2,21.8,335.3,24.7,335.3,27.6L335.3,27.6z"/>
</svg>
